<svg width="80" height="64" viewBox="0 0 80 64" fill="none" xmlns="http://www.w3.org/2000/svg">
<path d="M12.7621 20.7179C11.2502 21.3752 9.35391 22.405 7.45761 24.0298C3.45964 27.4566 1.76232 31.559 1.0591 33.692C0.546869 35.3376 0.0753911 37.4785 0.00826545 39.9968C-0.135575 45.3571 1.63047 49.5098 2.774 51.6978C3.7713 53.5532 6.32287 57.6731 11.3885 60.3756C19.5874 64.7485 27.7679 61.8856 29.132 61.3831L25.6191 52.5784C24.4875 53.0099 22.1294 53.7223 19.2573 53.1854C14.1374 52.2274 11.5515 48.0772 11.1216 47.3609C10.7508 46.7251 7.94028 41.7173 10.1794 36.1392C11.7776 32.1573 14.9893 30.2756 15.9762 29.7459L12.7621 20.7179Z" fill="white"/>
<path d="M14.6094 20.0747C15.6527 23.0517 16.6959 26.0278 17.74 29.0048C18.2496 28.8124 24.2669 26.6611 29.5905 30.4143C33.4427 33.1301 35.5405 37.9206 34.7108 42.6744C33.6107 48.9741 27.9895 51.6636 27.4823 51.896C28.688 54.7995 29.8937 57.7038 31.0994 60.6073C32.1242 60.141 33.2579 59.5261 34.4236 58.7124C37.3902 56.6409 39.2512 54.1934 40.3544 52.419C41.5961 54.3363 43.4715 56.6473 46.2293 58.6645C47.5382 59.6219 52.2849 62.9982 58.8526 63.1148C59.5582 63.1275 60.1471 63.0996 60.5623 63.0708C62.26 62.8672 69.4149 61.7916 74.7841 55.5381C80.7686 48.5676 80.0741 40.3817 79.8685 38.3758C79.7341 37.0606 78.6156 27.6736 70.3038 22.2938C64.9714 18.8425 59.5414 18.8936 57.4917 19.019C55.5707 19.1148 51.42 19.5916 47.3189 22.432C44.8276 24.1576 43.2378 26.1436 42.2994 27.5451L46.7893 39.2725C47.7238 34.1363 51.4536 30.0861 56.202 29.032C61.6592 27.8198 65.8643 31.1409 66.2595 31.4643C70.7838 35.1624 70.6478 40.658 70.6118 41.5149C70.5726 42.4468 70.151 47.2045 66.0971 50.6271C65.5035 51.1278 62.4272 53.4268 58.0789 53.1417C55.1427 52.9493 52.9953 51.6604 51.9433 50.8978C49.8535 49.3829 48.7814 47.5471 45.5892 40.2452C43.8387 36.2413 43.0194 34.2169 42.4858 32.9425C37.8223 21.8059 33.5291 10.8163 29.5777 0C26.6774 1.15789 23.778 2.31579 20.8778 3.47368C22.7828 8.54286 24.6869 13.612 26.5918 18.6812C25.0389 18.2995 23.71 18.2053 22.7516 18.1989C20.4858 18.1829 18.7737 18.6421 17.7672 18.9192C16.4479 19.2833 15.3774 19.7201 14.6094 20.0747Z" fill="#00ADFF"/>
</svg>
